<svg xmlns="http://www.w3.org/2000/svg" viewBox="0 0 1041.45 1021.9"><g id="Layer_1"><g><path d="M521.55,142.3c-202.92,0-367.4,164.49-367.4,367.4s164.48,367.4,367.4,367.4,367.4-164.49,367.4-367.4-164.5-367.4-367.4-367.4ZM496.35,638.98l-53.55,31.22-36.97,22.16c-2.95,1.73-5.52,3.51-7.74,5.42l-0.560.54c-8.32,7.37-14.04,17.24-16.44,28.1l-0.38,1.62c-1.49,6.93-2.89,13.38-5.11,19.14-3.11,8.03-9.48,14.24-17.64,16.97-11.65,3.91-24.83,2.13-34.2-5.77-0.63-0.53-1.25-1.08-1.83-1.65-2.05-1.97-3.76-4.28-5.26-6.7l-0.14-0.19c-1.23-2.14-2.17-4.31-2.9-6.47-2.12-7.82-1.59-12.92-0.27-17.540.34-1.35,1.59-4.91,1.84-6.57v-0.06c0.05-0.320.1-0.640.12-0.980.19-2.03-0.05-4.31-1.21-6.37-2.27-3.94-9.41-5.32-9.41-5.32-6.01-1.54-16.51-5.9-22.11-15.67-1.4-2.4-2.42-4.95-3.11-7.61-0.31-1.2-0.55-2.41-0.73-3.62-0.02-0.13-0.02-0.25-0.03-0.38-0.15-1.12-0.26-2.24-0.31-3.37-0.26-10.83,4.95-21.35,13.46-28.42,6.35-5.29,14.65-7.35,22.81-6.04,6.10.98,12.36,3.03,19.09,5.23l1.590.5c10.59,3.39,21.99,3.43,32.55-0.03l0.75-0.21,8.52-4.37,9.15-5.26s-0.03-0.06-0.05-0.08l38.83-22.42,18.96-11.25c3.45-1.99,7.7-1.99,11.150.01l41.14,23.85c4.47,2.59,4.46,9.03,0,11.61ZM763.15,746.82c-8.18,0-15.47-5.92-15.47-15.11s7.29-15.02,15.47-15.02,15.47,5.88,15.47,15.02-7.29,15.11-15.47,15.11ZM810.56,503.7c-4.34,2.77-9.48,4.06-14.62,3.72-7.41-0.5-15.03-2.94-23.34-5.62l-1.57-0.5c-10.6-3.34-22.01-3.32-32.570.19l-0.730.21c-2.780.98-5.6,2.31-8.57,4l-90.73,51.55-38.42,22.18c-2.73,1.58-6.08,1.69-8.910.28l-22.75-11.27c-3.18-1.71-7.02-1.66-10.140.15l-4.17,2.41c-3.06,1.77-3.06,6.18,0,7.95l21.24,12.06,90.71,51.55c2.99,1.69,5.81,3.02,8.57,4l0.750.22c10.54,3.51,21.94,3.53,32.550.19l1.59-0.5c8.3-2.68,15.92-5.12,23.34-5.62,5.12-0.35,10.280.94,14.6,3.72,12.12,7.78,19.3,22.06,16.8,36.06-0.170.97-0.39,1.94-0.63,2.9-0.68,2.65-1.76,5.24-3.14,7.61,0,0,0,0-0.02,0-1.23,2.14-2.65,4.04-4.15,5.75-5.7,5.74-10.38,7.85-15.04,9.02-1.350.38-5.04,1.07-6.61,1.69-0.03,0-0.050.01-0.070.02-0.310.12-0.60.25-0.910.39-1.840.85-3.71,2.19-4.9,4.24-2.27,3.930.1,10.810.1,10.81,1.66,5.98,3.14,17.24-2.51,26.99-1.38,2.41-3.07,4.58-5.04,6.49-0.890.87-1.81,1.68-2.77,2.44-0.10.08-0.220.15-0.320.22-0.890.69-1.81,1.35-2.77,1.95-11.12,6.78-25.8,6.5-37.43-0.31-3.35-1.97-6.15-4.85-7.99-8.27-3.84-7.06-5.62-15.47-7.57-24.74l-0.36-1.62c-2.36-10.86-8.03-20.76-16.31-28.17l-0.55-0.54-8.04-5.2-0.97-0.55s-0.020.05-0.030.07l-172.3-99.47-140.76-81.25s0.03-0.060.05-0.08l-9.15-5.27-8.52-4.37-0.75-0.21c-10.55-3.46-21.96-3.42-32.55-0.03l-1.570.5c-9,2.95-17.18,5.61-25.21,5.83-3.890.1-7.79-0.87-11.17-2.79-11.71-6.66-19.3-19.23-18.99-32.250.03-1.130.15-2.250.31-3.370.02-0.130.02-0.250.03-0.380.17-1.220.43-2.430.73-3.620.67-2.66,1.71-5.21,3.09-7.61,5.62-9.77,16.1-14.12,22.11-15.67,0,0,7.14-1.39,9.41-5.32,1.18-2.06,1.4-4.34,1.21-6.37-0.02-0.34-0.05-0.66-0.1-0.98,0-0.02,0-0.04-0.02-0.06-0.24-1.67-1.5-5.22-1.84-6.57-1.31-4.62-1.83-9.730.29-17.540.72-2.16,1.67-4.34,2.9-6.47l0.24-0.38c1.42-2.26,3.01-4.42,4.92-6.290.67-0.64,1.35-1.27,2.05-1.86,11.27-9.48,27.99-10.15,41-2.75,3.47,1.97,6.37,4.9,8.3,8.4,3.86,7.03,5.69,15.43,7.67,24.68l0.36,1.62c2.41,10.85,8.13,20.72,16.44,28.1l0.560.54c2.24,1.91,4.8,3.68,7.75,5.42l36.97,22.16,1.640.95c-19.19-27.58-30.5-61.08-30.5-97.24,0-106.99,98.6-190.94,209.89-165.95,60.78,13.65,109.56,60.48,125.09,120.8,13.58,52.71,2.49,102.87-24.08,141.53l37.65-21.74s0.020.050.030.07l0.96-0.56,8.04-5.20.56-0.54c8.28-7.41,13.95-17.31,16.31-28.17l0.36-1.62c1.93-9.27,3.72-17.68,7.55-24.73,1.86-3.42,4.64-6.31,8.01-8.28,11.63-6.82,26.3-7.09,37.43-0.310.960.6,1.88,1.26,2.77,1.950.10.080.20.140.310.220.970.77,1.9,1.58,2.77,2.45,1.96,1.91,3.67,4.09,5.04,6.49,5.65,9.74,4.18,21.01,2.51,26.99,0,0-2.37,6.87-0.1,10.81,1.2,2.04,3.07,3.38,4.92,4.240.310.150.60.270.910.390.02,0,0.030.010.050.02,1.570.62,5.28,1.3,6.63,1.69,4.64,1.17,9.32,3.28,15.04,9.02,1.5,1.71,2.92,3.62,4.15,5.75h0c1.4,2.38,2.46,4.96,3.14,7.610.260.960.46,1.930.65,2.9,2.48,14-4.7,28.28-16.8,36.06Z" fill="#231f20"/><path d="M763.15,719.92c-6.32,0-11.8,4.94-11.8,11.78s5.48,11.9,11.8,11.9,11.66-5.01,11.66-11.9-5.42-11.78-11.66-11.78ZM766.41,739.64l-3.54-6.21c-0.18-0.31-0.5-0.5-0.86-0.5h-0.64c-0.49,0-0.880.39-0.880.88v5.34c0,0.55-0.440.99-0.990.99h-1.37c-0.55,0-0.99-0.44-0.99-0.99v-14.41c0-0.820.66-1.48,1.48-1.48h4.88c4.23,0,6.61,1.33,6.61,5,0,2.59-1.34,3.85-3.24,4.32-0.560.14-0.850.76-0.55,1.25l2.94,4.81c0.40.66-0.07,1.5-0.84,1.5h-1.17c-0.35,0-0.68-0.19-0.86-0.5Z" fill="#231f20"/><path d="M766.78,727.97c0-1.81-1.94-2.09-3.46-2.09h-1.48c-0.74,0-1.340.6-1.34,1.34v1.74c0,0.740.6,1.34,1.34,1.34h1.64c1.89,0,3.3-0.28,3.3-2.34Z" fill="#231f20"/><path d="M458.67,366.46c19.06,0,34.53-15.62,34.53-34.88s-15.47-34.88-34.53-34.88-34.53,15.62-34.53,34.88,15.45,34.88,34.53,34.88Z" fill="#231f20"/><ellipse cx="583.8" cy="331.58" rx="34.53" ry="34.88" fill="#231f20"/><path d="M651.56,392.09c-0.19-2.81-1.49-4.71-4.36-5.82-0.86-0.33-1.85-0.59-3-0.78-1.65-0.27-3.62-0.41-5.94-0.41-8.92,0-13.33,2.36-13.33,7.75,0,0.840.16,1.640.43,2.410.190.550.44,1.090.76,1.6,1.14,1.82,1.9,3.86,1.94,6,0.04,1.95-0.27,4.31-1.05,8.82l-1.06,4.34c-4.51,17.55-13.15,33.15-24.69,45.88-0.150.17-0.290.33-0.440.5-0.470.52-0.96,1.02-1.44,1.52-0.530.56-1.06,1.11-1.6,1.66-0.320.32-0.650.64-0.970.96-0.750.74-1.51,1.47-2.28,2.18-0.180.17-0.360.33-0.540.5-19.32,17.67-44.87,28.19-72.43,28.19-49.13,0-92.06-33.44-104.37-81.31l-1.06-4.34c-0.78-4.51-1.08-6.87-1.05-8.820.04-2.150.81-4.18,1.94-6,0.34-0.550.61-1.140.81-1.740.24-0.730.38-1.490.38-2.28,0-5.38-4.41-7.75-13.33-7.75-2.07,0-3.840.11-5.370.33-1.610.23-2.940.57-4.03,1.05-2.55,1.13-3.73,2.97-3.9,5.63-0.12,1.80.45,3.57,1.39,5.120.98,1.59,1.83,3.25,2.39,5.030.39,1.260.72,2.510.89,3.75,1.77,13,5.55,25.39,10.99,36.85,0,0-0.01,0-0.020.010.190.40.40.790.59,1.180.110.220.220.440.330.670.58,1.18,1.19,2.34,1.8,3.50.280.530.57,1.060.86,1.590.280.510.56,1.020.85,1.520.57,1,1.15,1.99,1.74,2.970.160.260.330.520.490.790.64,1.03,1.29,2.06,1.95,3.070.050.070.090.150.140.22,22.75,34.49,61.8,57.41,105.57,57.41,50.01,0,93.95-29.94,114.37-72.84-0.01,0-0.02-0.02-0.04-0.020.91-1.94,1.76-3.91,2.57-5.90.29-0.70.57-1.390.84-2.090.11-0.280.23-0.570.34-0.85,3.46-8.96,5.92-18.39,7.25-28.170.17-1.250.5-2.50.89-3.750.55-1.78,1.41-3.44,2.39-5.030.94-1.54,1.51-3.31,1.39-5.12Z" fill="#231f20"/></g></g></svg>